Genre:Animation | Comedy | Family
Language:English
IMDb:http://www.imdb.com/title/tt1001526/
Source:BluRay.x264-Felony
Subtitles:Romana


Format : MPEG-4
Format profile : Base Media
Codec ID : isom
File size : 1.26 GiB
Duration : 1h 35mn
Overall bit rate : 1 891 Kbps
Movie name : Megamind 2010 720p BRRip x264 Feel-Free


Video
Format settings, CABAC : Yes
Format settings, ReFrames : 4 frames
Codec ID : avc1
Codec ID/Info : Advanced Video Coding
Duration : 1h 35mn
Bit rate mode : Variable
Bit rate : 1 500 Kbps
Width : 1 280 pixels
Height : 544 pixels
Display aspect ratio : 2.35:1
Frame rate mode : Constant
Frame rate : 23.976 fps
Color space : YUV
Chroma subsampling : 4:2:0
Bit depth : 8 bits
Scan type : Progressive
Bits/(Pixel*Frame) : 0.090
Stream size : 1.00 GiB (79%)
Writing library : x264

Audio
ID : 2
Format : AAC
Format/Info : Advanced Audio Codec
Format version : Version 4
Format profile : LC
Codec ID : 40
Duration : 1h 35mn
Bit rate mode : Variable
Bit rate : 384 Kbps
Channel(s) : 6 channels
Channel positions : Front: L C R, Side: L R, LFE
Sampling rate : 48.0 KHz
Stream size : 262 MiB (20%)


Plot:
The supervillain Megamind finally conquers his nemesis, the hero Metro Man... but finds his life pointless without a hero to fight

